# xmcd CD database file
#
# Track frame offsets:
#	150
#	15740
#	36791
#	53221
#	72647
#	93526
#	109946
#	130264
#	145143
#	163574
#	178592
#	199609
#	216215
#	228511
#
# Disc length: 3243 seconds
#
# Revision: 1
# Processed by: cddbd v1.5.1PL2 Copyright (c) Steve Scherf et al.
# Submitted via: CDex 1.51
#
DISCID=cb0ca90e
DTITLE=Rodney Noll - Limestone Country
DYEAR=1900
DGENRE=Country
TTITLE0=Life's A Highway
TTITLE1=Juat Believe In Yourself
TTITLE2=Your Local Bloke
TTITLE3=We've All Gone Droving
TTITLE4=From The Fruit of The Vine
TTITLE5=The Secrets Of A River So Grand
TTITLE6=Oh Jackie I Love You
TTITLE7=Heroes of The Land
TTITLE8=Goyder's Line
TTITLE9=Federation
TTITLE10=Paddlewheeler
TTITLE11=The Dog and The Goanna
TTITLE12=They Call You A Golden Oldie
TTITLE13=What The Outback Means To Me
EXTD=
EXTT0=
EXTT1=
EXTT2=
EXTT3=
EXTT4=
EXTT5=
EXTT6=
EXTT7=
EXTT8=
EXTT9=
EXTT10=
EXTT11=
EXTT12=
EXTT13=
PLAYORDER=
